<svg width="49" height="22" viewBox="0 0 49 22" fill="none" xmlns="http://www.w3.org/2000/svg">
<path fill-rule="evenodd" clip-rule="evenodd" d="M0.194397 18.251V7.51743H24.0717L16.1004 18.251H0.194397ZM18.7008 18.251L24.7643 7.51743H48.1677V18.251H18.6887H18.7008Z" fill="#0862AB"/>
<path d="M48.3743 7.32315H0V18.4453H16.2827L16.5015 18.3239L23.7558 8.5495L18.6887 17.5225L18.069 18.4453H48.3743V7.32315ZM23.3305 7.88169L15.9061 17.8746H0.558959V7.88169H23.3305ZM47.8032 7.88169V17.8746H19.3327L24.9831 7.88169H47.8032Z" fill="white"/>
<path fill-rule="evenodd" clip-rule="evenodd" d="M30.3413 15.4343C30.4385 15.325 30.7059 14.56 30.7788 14.5479H33.0146L33.4156 15.4343H34.327L33.1483 12.8358C32.9539 12.3987 32.7473 11.9738 32.5529 11.5366L32.0304 10.3953C31.9818 10.2739 31.9939 10.2617 31.9332 10.2617C31.8845 10.2739 31.8967 10.2617 31.8724 10.3346L31.3013 11.5488C31.0947 11.9738 30.9003 12.4109 30.6937 12.848L29.6244 15.1186C29.588 15.2036 29.5029 15.3614 29.4786 15.4464H30.3413V15.4343ZM31.0826 13.8315C31.119 13.6979 31.8602 12.0102 31.9088 11.9738L32.7108 13.8315H31.0947H31.0826ZM42.6263 12.8116C42.76 12.6901 43.0516 12.338 43.1974 12.2166L44.607 10.7231C44.692 10.626 44.8135 10.5288 44.8743 10.4196H43.963C43.8779 10.4196 43.89 10.4196 43.8414 10.4438L43.003 11.3302C43.003 11.3302 42.9179 11.4152 42.8693 11.4759C42.5048 11.8645 42.1402 12.253 41.7636 12.6416C41.7393 11.9616 41.7636 11.1238 41.7636 10.4074H40.9008V15.4221H41.7636V15.3493C41.7757 14.7543 41.7636 14.0258 41.7636 13.4065V13.0908L43.9143 15.325C43.9994 15.41 43.9508 15.4221 44.1088 15.4221H45.1173L44.4976 14.7664C44.3882 14.6693 44.3032 14.5479 44.1938 14.4386L43.0881 13.2972C43.0881 13.2972 42.9787 13.2001 42.9301 13.1394C42.8693 13.0665 42.6628 12.8723 42.6263 12.7994V12.8116ZM28.0083 12.7508C28.3728 12.5809 28.6766 12.3987 28.7617 11.9373C28.8589 11.4274 28.6766 11.0145 28.4093 10.7838C28.1177 10.5288 27.6923 10.4317 27.2063 10.4196C26.6959 10.4196 26.1734 10.4196 25.6631 10.4196V15.4343C26.1856 15.4464 26.8418 15.4585 27.3643 15.4221C27.8503 15.3857 28.2513 15.2643 28.5794 14.9486C28.8589 14.6693 28.9925 14.1108 28.871 13.6129C28.7131 12.9208 28.1663 12.848 28.0326 12.763L28.0083 12.7508ZM26.4772 12.4959V11.0752C26.7932 11.0388 27.4372 11.0631 27.6924 11.2452C27.8382 11.3545 27.9232 11.5124 27.9232 11.7673C27.9111 12.4716 26.9997 12.6173 26.4772 12.4959ZM26.4772 14.7179V13.1515C26.8539 13.0908 27.5101 13.1394 27.7896 13.358C28.0812 13.5887 28.1176 14.1836 27.7896 14.4872C27.5344 14.73 26.7688 14.7907 26.4651 14.7179H26.4772ZM36.016 12.253C36.0767 12.2894 36.7694 13.0301 36.8423 13.103C36.976 13.2487 37.1096 13.3822 37.2433 13.5279C37.5714 13.8801 37.9481 14.2443 38.264 14.5964L39.066 15.4343C39.2239 15.5921 39.1875 15.5921 39.309 15.5921V10.4196H38.4584V13.6008L37.2311 12.3259C37.1582 12.2652 37.0975 12.1802 37.0246 12.1073C36.9638 12.0345 36.8909 11.9738 36.818 11.9009C36.3684 11.4031 35.858 10.9052 35.4084 10.4196C35.372 10.3831 35.3477 10.3467 35.3112 10.3103C35.2626 10.2617 35.2626 10.2617 35.1654 10.2617V15.4343H36.0038V12.2652L36.016 12.253Z" fill="white"/>
<path fill-rule="evenodd" clip-rule="evenodd" d="M12.7351 15.3611C13.8651 15.7739 15.4812 15.7497 15.8093 14.3776C16.0281 13.4427 15.5177 12.8841 14.7643 12.4713L14.0352 12.0585C13.4277 11.7063 13.7072 11.0992 14.4119 11.2207C14.6185 11.2571 14.8129 11.3299 14.983 11.4149C15.1653 11.4999 15.3111 11.5971 15.4691 11.6699V10.5043C15.2747 10.4557 15.0924 10.3829 14.8737 10.3343C12.6864 9.83646 12.0424 11.7913 13.0631 12.7141C13.2089 12.8477 13.3183 12.9327 13.5006 13.042C13.8287 13.2484 14.1082 13.3698 14.4362 13.6005C14.9952 13.9769 14.7157 14.7054 13.6829 14.499C13.1846 14.4019 12.7472 14.074 12.6257 14.0376L12.7229 15.3611H12.7351ZM11.5199 14.3897H9.60001V13.3941H11.2283V12.3742H9.60001V11.4635H11.5078V10.4314H8.46994V15.434H11.5199V14.3897ZM4.8367 13.0541C4.8367 13.0541 4.84885 13.0298 4.861 13.1027V15.434H6.01538C6.03969 14.8147 6.01538 13.9648 6.01538 13.297V13.0663C6.01538 12.9934 6.01538 13.0298 6.03968 13.0055C6.16119 12.7991 7.44924 11.0871 7.70441 10.7593C7.78947 10.65 7.87453 10.5407 7.93528 10.4314H6.6837L5.55363 11.9977C5.45642 11.9006 4.54507 10.4436 4.50861 10.4314H3.08691L3.52436 11.0871C3.67018 11.3056 3.82815 11.5242 3.96181 11.7428L4.84886 13.0541H4.8367Z" fill="white"/>
<path fill-rule="evenodd" clip-rule="evenodd" d="M26.6113 4.1662L16.9632 21.238L14.1805 18.2996L16.0762 18.3603L26.6113 4.1662Z" fill="#ED1C24"/>
<path d="M24.9709 7.83311L24.6428 7.65098L26.7693 3.86264L23.9381 7.79668L23.6464 7.57812L29.0659 0.547852L24.9709 7.83311Z" fill="white"/>
<path d="M16.9875 21.5415L14.0469 18.421L14.3143 18.1782L16.9389 20.9466L18.6644 18.2267L18.9804 18.421L16.9875 21.5415Z" fill="white"/>
</svg>
