<svg width="20" height="20" viewBox="0 0 20 20" fill="none" xmlns="http://www.w3.org/2000/svg">
<path d="M17.5 7.45002C17.4913 7.37347 17.4746 7.29805 17.45 7.22502V7.15002C17.4099 7.06434 17.3565 6.98557 17.2917 6.91669L12.2917 1.91669C12.2228 1.85187 12.144 1.79842 12.0583 1.75835C12.0335 1.75482 12.0082 1.75482 11.9833 1.75835C11.8987 1.7098 11.8052 1.67864 11.7083 1.66669H8.33333C7.67029 1.66669 7.03441 1.93008 6.56557 2.39892C6.09673 2.86776 5.83333 3.50365 5.83333 4.16669V5.00002H5C4.33696 5.00002 3.70107 5.26341 3.23223 5.73225C2.76339 6.20109 2.5 6.83698 2.5 7.50002V15.8334C2.5 16.4964 2.76339 17.1323 3.23223 17.6011C3.70107 18.07 4.33696 18.3334 5 18.3334H11.6667C12.3297 18.3334 12.9656 18.07 13.4344 17.6011C13.9033 17.1323 14.1667 16.4964 14.1667 15.8334V15H15C15.663 15 16.2989 14.7366 16.7678 14.2678C17.2366 13.7989 17.5 13.1631 17.5 12.5V7.50002C17.5 7.50002 17.5 7.50002 17.5 7.45002ZM12.5 4.50835L14.6583 6.66669H13.3333C13.1123 6.66669 12.9004 6.57889 12.7441 6.42261C12.5878 6.26633 12.5 6.05437 12.5 5.83335V4.50835ZM12.5 15.8334C12.5 16.0544 12.4122 16.2663 12.2559 16.4226C12.0996 16.5789 11.8877 16.6667 11.6667 16.6667H5C4.77899 16.6667 4.56702 16.5789 4.41074 16.4226C4.25446 16.2663 4.16667 16.0544 4.16667 15.8334V7.50002C4.16667 7.27901 4.25446 7.06705 4.41074 6.91077C4.56702 6.75448 4.77899 6.66669 5 6.66669H5.83333V12.5C5.83333 13.1631 6.09673 13.7989 6.56557 14.2678C7.03441 14.7366 7.67029 15 8.33333 15H12.5V15.8334ZM15.8333 12.5C15.8333 12.721 15.7455 12.933 15.5893 13.0893C15.433 13.2456 15.221 13.3334 15 13.3334H8.33333C8.11232 13.3334 7.90036 13.2456 7.74408 13.0893C7.5878 12.933 7.5 12.721 7.5 12.5V4.16669C7.5 3.94567 7.5878 3.73371 7.74408 3.57743C7.90036 3.42115 8.11232 3.33335 8.33333 3.33335H10.8333V5.83335C10.8333 6.4964 11.0967 7.13228 11.5656 7.60112C12.0344 8.06996 12.6703 8.33335 13.3333 8.33335H15.8333V12.5Z" fill="#A90808"/>
</svg>
