<svg width="72" height="35" viewBox="0 0 72 35" fill="none" xmlns="http://www.w3.org/2000/svg">
<path d="M67.076 1.48193L71.0737 9.42286L62.665 17.3881L67.076 1.48193Z" fill="#048040"/>
<path d="M64.2937 1.48193L68.3037 9.42286L59.8828 17.3881L64.2937 1.48193Z" fill="#F37124"/>
<path d="M0.0615234 14.4983L4.0593 0.109863H10.4509C12.4437 0.109863 13.7803 0.425561 14.4608 1.08123C15.1291 1.72477 15.2628 2.78112 14.8618 4.26246C14.6188 5.13669 14.2421 5.86522 13.7317 6.44804C13.2214 7.03086 12.5531 7.49226 11.7268 7.8201C12.4194 7.99009 12.869 8.33007 13.0756 8.8279C13.27 9.32572 13.2578 10.0664 13.0148 11.0135L12.5288 13.0169V13.0655C12.3829 13.6362 12.4316 13.9397 12.6503 13.964L12.5045 14.4983H8.17859C8.19075 14.1583 8.21504 13.8547 8.2515 13.5997C8.28795 13.3447 8.32441 13.1383 8.36086 13.0048L8.76185 11.572C8.96842 10.8313 8.98058 10.3092 8.78616 10.0057C8.60389 9.70211 8.16645 9.54428 7.49812 9.54428H5.68757L4.30233 14.5104H0.0736773L0.0615234 14.4983ZM6.56247 6.29018H8.50667C9.18715 6.29018 9.68536 6.19305 10.0013 5.98663C10.3172 5.78022 10.5481 5.45238 10.6818 4.94241C10.8154 4.43244 10.7911 4.08033 10.5845 3.88606C10.378 3.69178 9.90408 3.59464 9.1507 3.59464H7.31585L6.56247 6.29018Z" fill="white"/>
<path d="M26.7098 3.87402L23.757 14.4862H20.1845L20.622 12.932C19.9901 13.5513 19.3461 14.0127 18.702 14.3162C18.058 14.6198 17.3776 14.7655 16.6606 14.7655C16.0652 14.7655 15.5549 14.6562 15.1539 14.4498C14.7407 14.2312 14.4369 13.9155 14.2304 13.4906C14.0481 13.1142 13.963 12.6528 13.9995 12.1064C14.036 11.5721 14.2182 10.6493 14.5706 9.37439L16.1017 3.87402H20.0144L18.4955 9.3501C18.2768 10.1515 18.216 10.7222 18.3254 11.0257C18.4347 11.3414 18.7385 11.4993 19.2246 11.4993C19.7106 11.4993 20.1359 11.3171 20.4761 10.965C20.8164 10.6007 21.0959 10.0665 21.2903 9.33797L22.8092 3.87402H26.7219H26.7098Z" fill="white"/>
<path d="M25.2881 14.4983L29.2737 0.109863H34.7661C35.9812 0.109863 36.9169 0.182719 37.5852 0.340566C38.2535 0.486271 38.776 0.72912 39.1649 1.0691C39.6509 1.51836 39.9547 2.07688 40.0762 2.7447C40.1856 3.41251 40.1248 4.1896 39.8696 5.1124C39.4201 6.71516 38.6302 7.95365 37.5244 8.81574C36.4065 9.66569 35.0213 10.0907 33.3566 10.0907H30.7926L29.5775 14.4983H25.3002H25.2881ZM31.7647 6.5816H33.1378C34.0249 6.5816 34.6567 6.47232 35.0213 6.25376C35.3737 6.04734 35.6288 5.65879 35.7868 5.1124C35.9326 4.55386 35.8962 4.16532 35.6653 3.9589C35.4344 3.74035 34.8633 3.63106 33.952 3.63106H32.5789L31.7647 6.5816Z" fill="white"/>
<path d="M44.4749 14.4982L44.5113 13.4782C43.8795 13.9518 43.2476 14.3039 42.6036 14.5346C41.9595 14.7653 41.2791 14.8746 40.55 14.8746C39.4321 14.8746 38.6665 14.571 38.2169 13.9882C37.7795 13.4054 37.7066 12.5676 37.9982 11.4869C38.2899 10.4427 38.8002 9.6656 39.5414 9.15564C40.2827 8.65781 41.5099 8.29355 43.2354 8.06286C43.4542 8.02643 43.7458 8.00215 44.1103 7.95358C45.3862 7.80788 46.1031 7.4679 46.249 6.90936C46.334 6.60581 46.2854 6.3751 46.091 6.24154C45.9087 6.09584 45.5685 6.03513 45.0824 6.03513C44.6814 6.03513 44.3412 6.12011 44.086 6.2901C43.8187 6.46009 43.6121 6.72722 43.4785 7.09148H39.6629C40.0153 5.90156 40.708 4.99091 41.7651 4.3838C42.8223 3.7767 44.2075 3.47314 45.9209 3.47314C46.735 3.47314 47.4519 3.54599 48.096 3.71598C48.74 3.87383 49.2017 4.10452 49.5055 4.37165C49.8822 4.71163 50.1009 5.10019 50.1617 5.52516C50.2346 5.95013 50.1617 6.55723 49.9308 7.35861L48.2904 13.284C48.2418 13.4782 48.2296 13.6482 48.2539 13.8061C48.2782 13.9518 48.3511 14.0853 48.4605 14.1703L48.3754 14.4739H44.4384L44.4749 14.4982ZM45.4227 9.75061C45.0095 9.9206 44.4627 10.0784 43.7944 10.2484C42.7372 10.5277 42.1418 10.9041 42.0203 11.3776C41.9352 11.6812 41.9595 11.9119 42.1175 12.0819C42.2633 12.2519 42.5185 12.3369 42.8709 12.3369C43.5149 12.3369 44.0374 12.179 44.4263 11.8512C44.8151 11.5233 45.1067 11.0012 45.3133 10.297C45.3498 10.1391 45.3862 10.0299 45.3984 9.95702L45.4227 9.76274" fill="white"/>
<path d="M48.4355 18.6752L49.3104 15.5304H50.4284C50.8051 15.5304 51.0967 15.4576 51.3033 15.324C51.5098 15.1904 51.6556 14.9476 51.7407 14.6319C51.7772 14.4984 51.8014 14.3405 51.8258 14.1705C51.8379 14.0005 51.8379 13.8063 51.8258 13.5877L51.2303 3.87402H55.1917L55.1309 10.3093L58.594 3.87402H62.2759L56.1638 14.4376C55.4712 15.6154 54.9608 16.4289 54.6449 16.8661C54.3289 17.3032 54.0251 17.6432 53.7335 17.8739C53.3568 18.1896 52.9315 18.4202 52.4819 18.5538C52.0323 18.6874 51.3397 18.7602 50.4041 18.7602C50.1367 18.7602 49.8329 18.7602 49.4927 18.7359C49.1646 18.7238 48.8122 18.6995 48.4477 18.6752" fill="white"/>
<path fill-rule="evenodd" clip-rule="evenodd" d="M17.9239 34.4234L18.811 30.7201H19.5279C20.5729 30.7201 21.3992 30.6958 22.1283 30.1616C22.7845 29.688 23.1855 28.9716 23.2827 28.0731C23.3677 27.3203 23.149 26.6889 22.6751 26.2761C22.0918 25.7661 21.3628 25.754 20.4271 25.754H18.6287L16.5508 34.4113H17.9118L17.9239 34.4234ZM19.1026 29.4937L19.698 26.9925H20.1355C21.3871 26.9925 22.0189 27.1503 21.9096 28.1338C21.7881 29.2752 21.0104 29.4937 19.5522 29.4937H19.0905H19.1026ZM26.3569 29.6152L26.9888 26.9925H27.2075C28.4591 26.9925 29.091 27.1503 28.9816 28.1945C28.848 29.3966 28.0703 29.6152 26.6243 29.6152H26.3569ZM25.2026 34.4234L26.1018 30.7201H26.4177L28.3012 34.4234H29.8322L27.8394 30.6715C29.3097 30.4408 30.2089 29.4937 30.3669 28.0731C30.4519 27.3203 30.2211 26.6889 29.7472 26.2761C29.1639 25.7661 28.4348 25.754 27.4992 25.754H25.9317L23.8538 34.4113H25.2026V34.4234ZM31.2539 34.4234H36.1144L36.4182 33.1728H32.9065L33.5748 30.3801H37.0865L37.3782 29.1659H33.8786L34.389 26.9803H37.9007L38.1923 25.754H33.3318L31.2539 34.4113V34.4234ZM39.8327 34.4234L40.7198 30.7201H41.4367C42.4817 30.7201 43.308 30.6958 44.0371 30.1616C44.6933 29.688 45.0943 28.9716 45.1915 28.0731C45.2765 27.3203 45.0578 26.6889 44.5839 26.2761C44.0006 25.7661 43.2716 25.754 42.3359 25.754H40.5375L38.4596 34.4113H39.8206L39.8327 34.4234ZM41.0114 29.4937L41.6068 26.9925H42.0443C43.2959 26.9925 43.9277 27.1503 43.8184 28.1338C43.6969 29.2752 42.9192 29.4937 41.461 29.4937H40.9993H41.0114ZM47.2936 31.2301L48.6546 29.1052C48.849 28.8016 49.0556 28.4374 49.2865 28.0003C49.3229 28.4859 49.3472 28.8502 49.3958 29.0809L49.8333 31.2301H47.2936ZM43.7819 34.4234L49.7847 25.4261L51.9719 34.4234H50.5623L50.0763 32.3714H46.6253L45.2644 34.4234H43.7819ZM53.0533 34.4234H54.4265L56.5165 25.7661H55.1312L53.0533 34.4234ZM57.039 34.4234H59.9188C60.5386 34.4234 61.1583 34.3991 61.8144 34.217C62.6043 33.9985 63.2847 33.5856 63.8559 33.0028C64.6457 32.1893 65.1925 31.0479 65.3262 29.7852C65.4841 28.3767 65.0832 27.2353 64.2326 26.5311C63.3212 25.7783 62.2519 25.7418 60.9396 25.7418H59.0925L57.0147 34.3992L57.039 34.4234ZM58.6916 33.1849L60.174 26.9925H60.7573C61.7537 26.9925 62.5314 27.0046 63.1632 27.5389C63.7708 28.0488 64.0503 28.8624 63.9409 29.858C63.8194 31.0236 63.2362 32.0314 62.3856 32.6021C61.5228 33.1849 60.5264 33.1971 59.1898 33.1971H58.6916V33.1849Z" fill="white"/>
</svg>
