<svg width="54" height="41" viewBox="0 0 54 41" fill="none" xmlns="http://www.w3.org/2000/svg">
<path opacity="0.1" fill-rule="evenodd" clip-rule="evenodd" d="M54.0001 1C54.0001 0.723858 53.7763 0.5 53.5001 0.5C53.224 0.5 53.0001 0.723858 53.0001 1V12.6219L0.374518 27.5159C0.337304 27.5255 0.301771 27.5393 0.26845 27.5568C0.201697 27.5916 0.145085 27.6404 0.101307 27.6984C0.0575138 27.7562 0.0260042 27.8238 0.0106625 27.8974C0.00288943 27.9343 -0.000745541 27.9724 0.000127018 28.011L0.000126971 40C0.000126959 40.2761 0.223985 40.5 0.500127 40.5C0.776269 40.5 1.00013 40.2761 1.00013 40V28.3781L53.6363 13.4811C53.8515 13.4202 54.0001 13.2237 54.0001 13V1Z" fill="white"/>
</svg>
